<svg version="1.1" xmlns="http://www.w3.org/2000/svg" viewBox="0 0 1185 717" width="1185" height="717" filter="invert(93%) hue-rotate(180deg)">
  <!-- svg-source:excalidraw -->
  
  <defs>
    <style class="style-fonts">
      @font-face {
        font-family: "Virgil";
        src: url("https://excalidraw.com/Virgil.woff2");
      }
      @font-face {
        font-family: "Cascadia";
        src: url("https://excalidraw.com/Cascadia.woff2");
      }
      @font-face {
        font-family: "Assistant";
        src: url("https://excalidraw.com/Assistant-Regular.woff2");
      }
    </style>
    
  </defs>
  <rect x="0" y="0" width="1185" height="717" fill="#ffffff"></rect><g stroke-linecap="round" transform="translate(128 334) rotate(0 94 68.5)"><path d="M129.51 5.01 C141.2 7.43, 152.31 14.02, 161.13 20.9 C169.95 27.77, 177.97 37.37, 182.44 46.24 C186.91 55.1, 188.77 65.01, 187.97 74.07 C187.17 83.12, 183.8 92.36, 177.66 100.56 C171.51 108.76, 161.32 117.64, 151.08 123.28 C140.84 128.92, 128.6 132.15, 116.22 134.39 C103.85 136.64, 89.46 138.37, 76.83 136.74 C64.2 135.11, 51.02 129.88, 40.43 124.61 C29.84 119.35, 19.96 112.85, 13.28 105.17 C6.6 97.49, 1.79 87.97, 0.35 78.54 C-1.09 69.11, 1.05 57.59, 4.63 48.6 C8.22 39.61, 13.86 31.41, 21.85 24.59 C29.84 17.77, 40.89 11.67, 52.58 7.66 C64.27 3.65, 78.72 0.9, 91.98 0.54 C105.24 0.18, 125 4.15, 132.17 5.49 C139.33 6.83, 135.33 7.54, 134.95 8.59 M61.94 3.22 C72.46 -0.65, 87.56 0.56, 100.14 1.17 C112.72 1.78, 125.86 2.71, 137.42 6.89 C148.99 11.07, 161.29 18.69, 169.54 26.25 C177.78 33.82, 184.3 43.19, 186.89 52.29 C189.47 61.39, 187.8 71.73, 185.05 80.85 C182.29 89.97, 177.43 99.47, 170.36 107.01 C163.28 114.55, 153.38 121.25, 142.58 126.09 C131.78 130.93, 118.16 134.53, 105.56 136.05 C92.96 137.58, 79.01 137.7, 66.97 135.25 C54.94 132.8, 42.93 127.65, 33.35 121.33 C23.78 115.02, 15.13 105.91, 9.52 97.35 C3.9 88.78, 0.04 79.02, -0.34 69.94 C-0.71 60.86, 2.56 51.56, 7.26 42.85 C11.96 34.15, 18.75 23.96, 27.89 17.71 C37.02 11.45, 56.39 7.5, 62.05 5.33 C67.71 3.16, 61.34 3.98, 61.84 4.69" stroke="#1e1e1e" stroke-width="2" fill="none"></path></g><g transform="translate(159 372) rotate(0 58.33333396911621 31.24999948910306)"><text x="0" y="43.79999928392682" font-family="Virgil, Segoe UI Emoji" font-size="49.99999918256487px" fill="#1e1e1e" text-anchor="start" style="white-space: pre;" direction="ltr" dominant-baseline="alphabetic">Head</text></g><g transform="translate(110 402) rotate(0 -50 96)" stroke="none"><path fill="#1e1e1e" d="M 0.19,2.12 Q 0.19,2.12 -2.97,2.30 -6.15,2.48 -8.58,2.80 -11.02,3.12 -13.21,3.52 -15.39,3.91 -16.96,4.19 -18.53,4.47 -20.26,4.83 -21.98,5.20 -23.70,5.41 -25.41,5.62 -26.49,6.01 -27.58,6.41 -28.94,6.87 -30.30,7.34 -32.02,8.00 -33.74,8.65 -35.04,9.13 -36.34,9.61 -37.96,9.86 -39.58,10.11 -41.04,10.90 -42.50,11.69 -44.45,12.14 -46.40,12.59 -48.04,13.48 -49.68,14.36 -51.27,14.95 -52.85,15.54 -54.00,16.06 -55.15,16.58 -56.42,17.29 -57.68,18.00 -58.87,18.65 -60.06,19.31 -62.43,21.25 -64.80,23.19 -65.82,24.19 -66.85,25.20 -67.84,26.20 -68.84,27.20 -70.51,28.67 -72.19,30.14 -73.11,31.13 -74.04,32.12 -76.15,34.91 -78.26,37.70 -79.80,39.78 -81.34,41.85 -83.12,45.21 -84.89,48.58 -86.30,50.69 -87.72,52.79 -89.12,55.85 -90.52,58.91 -91.10,60.76 -91.67,62.60 -92.82,66.01 -93.97,69.41 -94.43,71.37 -94.90,73.33 -95.68,77.32 -96.47,81.32 -97.10,84.19 -97.74,87.06 -97.99,90.76 -98.25,94.47 -98.37,96.93 -98.48,99.39 -98.54,102.15 -98.59,104.91 -98.61,107.52 -98.63,110.13 -98.65,113.26 -98.66,116.38 -98.38,118.48 -98.10,120.59 -97.87,122.12 -97.64,123.64 -97.24,125.02 -96.84,126.40 -96.62,128.00 -96.39,129.60 -96.01,130.97 -95.63,132.34 -95.21,134.12 -94.79,135.90 -94.29,137.13 -93.80,138.35 -93.30,140.13 -92.80,141.91 -92.52,143.31 -92.23,144.71 -91.63,145.85 -91.04,146.99 -90.24,148.38 -89.43,149.76 -88.22,151.12 -87.01,152.48 -85.95,153.45 -84.89,154.42 -83.82,155.39 -82.75,156.36 -82.00,157.79 -81.24,159.22 -80.40,160.31 -79.56,161.39 -78.83,162.19 -78.10,162.99 -76.51,164.85 -74.93,166.72 -73.83,168.18 -72.73,169.63 -70.73,171.93 -68.73,174.22 -67.31,175.83 -65.89,177.44 -64.45,179.00 -63.01,180.56 -62.02,181.43 -61.04,182.30 -59.78,183.56 -58.52,184.81 -57.65,185.57 -56.77,186.34 -55.46,186.89 -54.15,187.45 -51.84,187.76 -49.54,188.06 -47.37,188.48 -45.21,188.89 -43.54,189.00 -41.86,189.11 -41.41,189.21 -40.95,189.31 -40.55,189.54 -40.15,189.78 -39.84,190.13 -39.54,190.49 -39.36,190.92 -39.18,191.35 -39.15,191.82 -39.13,192.28 -39.25,192.73 -39.37,193.18 -39.63,193.57 -39.88,193.96 -40.25,194.25 -40.62,194.53 -41.06,194.68 -41.50,194.84 -41.97,194.84 -42.44,194.84 -42.88,194.70 -43.32,194.55 -43.70,194.28 -44.07,194.00 -44.34,193.61 -44.60,193.23 -44.73,192.78 -44.86,192.33 -44.84,191.87 -44.82,191.40 -44.65,190.96 -44.48,190.53 -44.18,190.17 -43.88,189.81 -43.48,189.57 -43.09,189.32 -42.63,189.22 -42.18,189.12 -41.71,189.16 -41.25,189.21 -40.82,189.40 -40.40,189.59 -40.06,189.91 -39.71,190.23 -39.49,190.64 -39.27,191.05 -39.19,191.51 -39.11,191.97 -39.18,192.43 -39.25,192.89 -39.47,193.31 -39.68,193.72 -40.02,194.04 -40.36,194.37 -40.78,194.57 -41.20,194.77 -41.66,194.82 -42.13,194.88 -42.13,194.88 -42.13,194.88 -45.13,194.27 -48.14,193.66 -49.66,193.34 -51.18,193.01 -52.75,192.61 -54.32,192.20 -55.95,191.53 -57.58,190.85 -58.61,190.04 -59.65,189.22 -60.41,188.34 -61.18,187.46 -62.43,186.19 -63.68,184.92 -64.55,183.93 -65.41,182.93 -66.97,181.45 -68.52,179.97 -70.09,178.48 -71.66,176.98 -73.98,174.69 -76.31,172.40 -77.28,171.18 -78.25,169.95 -80.17,168.22 -82.09,166.49 -82.85,165.59 -83.61,164.69 -84.92,163.14 -86.23,161.58 -86.94,160.35 -87.65,159.11 -88.62,157.97 -89.60,156.83 -90.69,155.39 -91.78,153.96 -92.44,152.93 -93.09,151.90 -94.00,150.35 -94.91,148.81 -95.64,147.11 -96.37,145.42 -96.50,144.21 -96.63,143.00 -97.11,141.35 -97.59,139.69 -98.04,138.25 -98.48,136.80 -98.94,135.01 -99.39,133.21 -99.71,131.58 -100.03,129.95 -100.09,128.55 -100.15,127.14 -100.43,125.52 -100.70,123.89 -100.71,122.41 -100.73,120.93 -101.02,118.65 -101.31,116.37 -101.30,113.24 -101.30,110.11 -101.28,107.49 -101.26,104.86 -101.22,102.07 -101.18,99.27 -101.07,96.78 -100.96,94.28 -100.69,90.38 -100.43,86.48 -99.82,83.63 -99.22,80.78 -98.45,76.73 -97.69,72.68 -97.20,70.59 -96.71,68.51 -95.62,65.10 -94.52,61.70 -93.88,59.69 -93.25,57.69 -91.79,54.40 -90.34,51.10 -89.09,49.09 -87.84,47.08 -86.05,43.45 -84.27,39.83 -82.85,37.63 -81.43,35.44 -79.27,32.24 -77.12,29.04 -76.12,28.12 -75.13,27.19 -73.64,25.51 -72.14,23.84 -71.11,22.84 -70.07,21.84 -69.02,20.85 -67.96,19.85 -66.17,17.94 -64.37,16.03 -63.44,15.43 -62.50,14.82 -61.38,14.22 -60.25,13.62 -58.77,12.72 -57.29,11.81 -56.04,11.26 -54.79,10.70 -53.44,10.11 -52.08,9.53 -50.67,8.76 -49.26,7.99 -48.14,7.57 -47.03,7.16 -45.85,7.08 -44.68,6.99 -43.67,6.56 -42.66,6.13 -41.46,5.73 -40.27,5.32 -39.09,5.20 -37.91,5.07 -36.67,4.66 -35.44,4.26 -33.49,3.80 -31.55,3.35 -30.11,2.94 -28.67,2.54 -27.22,2.22 -25.78,1.90 -24.24,1.80 -22.70,1.69 -20.85,1.32 -18.99,0.94 -17.52,0.83 -16.06,0.71 -13.83,0.18 -11.59,-0.33 -9.04,-0.83 -6.49,-1.33 -3.34,-1.73 -0.19,-2.12 0.06,-2.11 0.32,-2.11 0.56,-2.04 0.81,-1.97 1.04,-1.84 1.26,-1.72 1.45,-1.54 1.64,-1.36 1.78,-1.15 1.92,-0.93 2.00,-0.69 2.08,-0.44 2.11,-0.19 2.13,0.06 2.09,0.31 2.05,0.57 1.95,0.81 1.86,1.04 1.70,1.25 1.55,1.46 1.35,1.62 1.15,1.79 0.92,1.90 0.69,2.01 0.44,2.07 0.19,2.12 0.19,2.12 L 0.19,2.12 Z"></path></g><g transform="translate(80 574) rotate(0 2 22)" stroke="none"><path fill="#1e1e1e" d="M 1.63,-1.30 Q 1.63,-1.30 2.75,0.15 3.88,1.61 5.20,3.78 6.53,5.96 7.94,8.65 9.35,11.34 10.52,13.95 11.68,16.57 12.72,18.80 13.76,21.04 14.56,22.17 15.35,23.29 15.83,24.30 16.31,25.31 16.18,26.55 16.05,27.80 14.62,29.11 13.19,30.42 11.21,32.02 9.22,33.61 7.48,34.74 5.74,35.87 4.11,36.95 2.48,38.02 0.54,39.04 -1.39,40.05 -2.34,40.81 -3.30,41.56 -4.56,42.41 -5.82,43.27 -7.64,44.61 -9.46,45.96 -9.81,46.15 -10.17,46.35 -10.56,46.42 -10.96,46.49 -11.36,46.43 -11.76,46.37 -12.12,46.18 -12.48,46.00 -12.76,45.71 -13.04,45.42 -13.21,45.06 -13.39,44.70 -13.44,44.29 -13.49,43.89 -13.41,43.50 -13.32,43.10 -13.12,42.76 -12.92,42.41 -12.61,42.14 -12.31,41.88 -11.94,41.72 -11.56,41.57 -11.16,41.54 -10.76,41.51 -10.37,41.62 -9.98,41.72 -9.64,41.94 -9.31,42.16 -9.06,42.48 -8.81,42.80 -8.67,43.18 -8.54,43.56 -8.53,43.96 -8.53,44.36 -8.65,44.75 -8.78,45.13 -9.02,45.46 -9.26,45.78 -9.59,46.01 -9.92,46.24 -10.30,46.36 -10.69,46.47 -11.09,46.45 -11.50,46.44 -11.87,46.29 -12.25,46.15 -12.56,45.89 -12.87,45.64 -13.09,45.29 -13.30,44.95 -13.39,44.56 -13.48,44.16 -13.44,43.76 -13.41,43.36 -13.24,42.99 -13.08,42.62 -12.80,42.33 -12.53,42.03 -12.53,42.03 -12.53,42.03 -10.46,40.76 -8.39,39.48 -6.97,38.88 -5.55,38.27 -4.39,37.56 -3.22,36.85 -1.52,35.78 0.17,34.71 1.69,33.58 3.20,32.45 4.82,31.09 6.43,29.74 7.59,28.90 8.75,28.06 10.59,26.55 12.43,25.04 11.74,23.70 11.04,22.36 9.92,20.14 8.80,17.91 7.59,15.45 6.39,12.98 4.93,10.48 3.47,7.98 2.09,6.06 0.71,4.13 -0.45,2.72 -1.63,1.30 -1.76,1.09 -1.89,0.87 -1.97,0.63 -2.05,0.39 -2.07,0.14 -2.08,-0.10 -2.04,-0.35 -2.00,-0.60 -1.90,-0.83 -1.80,-1.06 -1.64,-1.26 -1.49,-1.46 -1.29,-1.62 -1.09,-1.77 -0.87,-1.88 -0.64,-1.98 -0.39,-2.03 -0.14,-2.08 0.10,-2.07 0.35,-2.06 0.59,-1.98 0.83,-1.91 1.05,-1.78 1.27,-1.65 1.45,-1.48 1.63,-1.30 1.63,-1.30 L 1.63,-1.30 Z"></path></g><g stroke-linecap="round" transform="translate(124 577) rotate(0 137 63.5)"><path d="M31.75 0 C104.03 1.55, 172.26 3.32, 242.25 0 M31.75 0 C110.67 1.9, 190.56 1.16, 242.25 0 M242.25 0 C262.43 0.49, 272.57 10.07, 274 31.75 M242.25 0 C264.21 1.55, 273.71 12.18, 274 31.75 M274 31.75 C272.85 45.09, 275.53 56.04, 274 95.25 M274 31.75 C272.5 50.95, 273.59 71.2, 274 95.25 M274 95.25 C273.81 118.04, 264.48 125.97, 242.25 127 M274 95.25 C274.28 118.64, 264.9 125.8, 242.25 127 M242.25 127 C198.29 126.1, 156.11 124.9, 31.75 127 M242.25 127 C171.84 128.4, 101.95 128.55, 31.75 127 M31.75 127 C9.24 126.51, 0.81 118.1, 0 95.25 M31.75 127 C11.58 127.56, 1.16 116.27, 0 95.25 M0 95.25 C1.42 73.33, 1.16 45.92, 0 31.75 M0 95.25 C1.14 74.95, 0.38 55.15, 0 31.75 M0 31.75 C1.44 9.97, 8.73 1.35, 31.75 0 M0 31.75 C-1.28 9.11, 9.2 -0.89, 31.75 0" stroke="#1e1e1e" stroke-width="2" fill="none"></path></g><g stroke-linecap="round"><g transform="translate(296 580) rotate(0 0 58)"><path d="M-0.18 0.52 C-0.22 19.61, 0.26 96.27, 0.31 115.63 M-1.74 -0.25 C-1.96 19.52, -0.66 97.82, -0.47 116.97" stroke="#1e1e1e" stroke-width="2" fill="none"></path></g></g><mask></mask><g stroke-linecap="round"><g transform="translate(359 634) rotate(0 47.5 2.9969785007957057)"><path d="M-0.97 0.31 C14.64 1.46, 78.46 4.72, 94.26 5.85 M0.72 -0.57 C16.67 0.86, 80.68 6.32, 96.58 7.32" stroke="#1e1e1e" stroke-width="2" fill="none"></path></g><g transform="translate(359 634) rotate(0 47.5 2.9969785007957057)"><path d="M72.51 14.07 C81.47 10.67, 89.11 7.61, 96.58 7.32 M72.51 14.07 C82.28 11.76, 92.17 8.92, 96.58 7.32" stroke="#1e1e1e" stroke-width="2" fill="none"></path></g><g transform="translate(359 634) rotate(0 47.5 2.9969785007957057)"><path d="M73.8 -2.98 C82.17 -0.45, 89.36 2.43, 96.58 7.32 M73.8 -2.98 C83.02 1.48, 92.4 5.39, 96.58 7.32" stroke="#1e1e1e" stroke-width="2" fill="none"></path></g></g><mask></mask><g stroke-linecap="round" transform="translate(476 576.5) rotate(0 137 63.5)"><path d="M31.75 0 C73.83 -1.06, 116.01 -2.54, 242.25 0 M31.75 0 C89.82 -0.01, 148.11 -0.04, 242.25 0 M242.25 0 C264.38 0.64, 272.62 9.64, 274 31.75 M242.25 0 C263.5 0.24, 274.78 9.5, 274 31.75 M274 31.75 C273.19 52.64, 271.62 74.44, 274 95.25 M274 31.75 C273.6 48.27, 274.38 64.04, 274 95.25 M274 95.25 C275.44 115.16, 263.26 126, 242.25 127 M274 95.25 C275.61 115.98, 262.58 127.52, 242.25 127 M242.25 127 C165.41 124.65, 88.33 125.13, 31.75 127 M242.25 127 C172.8 128.33, 102.84 128.05, 31.75 127 M31.75 127 C8.89 128.27, -1.68 116.21, 0 95.25 M31.75 127 C10.81 129.12, -0.44 114.7, 0 95.25 M0 95.25 C1.45 80.21, -0.04 63.36, 0 31.75 M0 95.25 C-0.22 71.82, -0.12 49.81, 0 31.75 M0 31.75 C-1 10.37, 8.78 -0.74, 31.75 0 M0 31.75 C-1.28 8.76, 12.8 -0.15, 31.75 0" stroke="#1e1e1e" stroke-width="2" fill="none"></path></g><g stroke-linecap="round"><g transform="translate(656.7261814116887 578.6372411788814) rotate(0 -0.5 61)"><path d="M0.9 -1.05 C0.64 19.28, -1.68 100.78, -1.91 121.43 M-0.09 1.02 C0.06 21.54, 0.48 102.68, 0.32 122.66" stroke="#1e1e1e" stroke-width="2" fill="none"></path></g></g><mask></mask><g stroke-linecap="round"><g transform="translate(698.6944561186899 629.6222273440474) rotate(0 49 1)"><path d="M0.6 -0.19 C16.95 0.36, 80.79 2.07, 97.11 2.6 M-0.54 -1.33 C16.26 -1.08, 82.93 0.37, 99.36 0.79" stroke="#1e1e1e" stroke-width="2" fill="none"></path></g><g transform="translate(698.6944561186899 629.6222273440474) rotate(0 49 1)"><path d="M75.67 8.79 C80.62 5.43, 87.14 6.02, 99.36 0.79 M75.67 8.79 C85.1 5.14, 94.42 3.08, 99.36 0.79" stroke="#1e1e1e" stroke-width="2" fill="none"></path></g><g transform="translate(698.6944561186899 629.6222273440474) rotate(0 49 1)"><path d="M76.07 -8.3 C80.84 -7.9, 87.27 -3.54, 99.36 0.79 M76.07 -8.3 C85.21 -5.43, 94.38 -0.97, 99.36 0.79" stroke="#1e1e1e" stroke-width="2" fill="none"></path></g></g><mask></mask><g stroke-linecap="round" transform="translate(823 576.5) rotate(0 137 63.5)"><path d="M31.75 0 C91.88 0.29, 149.39 -1.16, 242.25 0 M31.75 0 C86.39 -1.18, 140.38 -1.05, 242.25 0 M242.25 0 C263.03 -0.28, 274.63 11.22, 274 31.75 M242.25 0 C261.74 -1.16, 276.16 9.85, 274 31.75 M274 31.75 C272.18 50.78, 272.32 73.88, 274 95.25 M274 31.75 C275.09 43.77, 273.62 57.18, 274 95.25 M274 95.25 C275.45 114.88, 262.54 125.32, 242.25 127 M274 95.25 C274.96 114.84, 262.57 127.7, 242.25 127 M242.25 127 C185.72 126.61, 133.17 127.93, 31.75 127 M242.25 127 C191.63 126.54, 139.59 125.94, 31.75 127 M31.75 127 C9.27 126.22, 0.95 116.26, 0 95.25 M31.75 127 C10.23 127.28, -2.24 117.5, 0 95.25 M0 95.25 C1.2 77.03, 1.32 55.58, 0 31.75 M0 95.25 C0.54 74.56, -0.12 52.09, 0 31.75 M0 31.75 C-0.28 12.23, 8.59 1.91, 31.75 0 M0 31.75 C2.24 11.85, 12.29 -0.28, 31.75 0" stroke="#1e1e1e" stroke-width="2" fill="none"></path></g><g stroke-linecap="round"><g transform="translate(1011.7970710005332 578.19077096398) rotate(0 0 61)"><path d="M0.43 0.59 C0.33 21.07, 0.49 102.75, 0.54 123.02 M-0.81 -0.14 C-1.11 20, -0.32 100.8, -0.12 121.44" stroke="#1e1e1e" stroke-width="2" fill="none"></path></g></g><mask></mask><g transform="translate(1052 651) rotate(0 61.5 -111)" stroke="none"><path fill="#1e1e1e" d="M 0,-1.56 Q 0,-1.56 2.87,-1.52 5.75,-1.49 10.99,-1.46 16.24,-1.44 22.78,-1.42 29.32,-1.40 36.13,-1.39 42.93,-1.38 49.47,-2.22 56.02,-3.07 61.03,-4.56 66.04,-6.05 72.42,-9.23 78.81,-12.42 82.37,-14.62 85.94,-16.82 90.86,-20.88 95.78,-24.94 99.93,-28.14 104.08,-31.33 107.22,-34.36 110.36,-37.39 112.00,-38.99 113.64,-40.58 115.11,-42.87 116.58,-45.16 117.82,-47.05 119.06,-48.93 119.78,-50.55 120.50,-52.16 120.75,-54.50 120.99,-56.84 121.07,-60.42 121.15,-64.01 121.23,-66.31 121.31,-68.60 121.36,-71.59 121.41,-74.58 121.39,-76.42 121.36,-78.27 121.41,-80.49 121.45,-82.71 121.37,-84.23 121.29,-85.75 121.27,-87.55 121.25,-89.34 121.12,-91.99 121.00,-94.63 120.93,-95.89 120.87,-97.14 120.94,-99.11 121.00,-101.08 120.93,-102.21 120.86,-103.33 120.91,-105.25 120.97,-107.16 120.90,-108.26 120.83,-109.37 120.94,-111.55 121.05,-113.74 120.13,-117.25 119.22,-120.76 118.64,-122.34 118.07,-123.92 117.31,-126.70 116.55,-129.48 116.15,-131.28 115.76,-133.08 115.13,-135.17 114.49,-137.26 113.89,-139.04 113.28,-140.82 112.52,-142.68 111.75,-144.53 110.62,-146.41 109.49,-148.29 108.12,-150.91 106.74,-153.52 105.83,-154.81 104.92,-156.09 103.16,-158.69 101.41,-161.28 100.33,-162.61 99.25,-163.95 96.85,-166.83 94.46,-169.72 92.87,-171.53 91.29,-173.34 88.91,-175.82 86.53,-178.31 84.37,-180.53 82.21,-182.74 78.44,-186.26 74.67,-189.77 72.49,-191.86 70.30,-193.94 66.82,-196.81 63.34,-199.68 60.18,-201.73 57.03,-203.78 55.34,-204.96 53.65,-206.13 52.35,-206.81 51.06,-207.49 49.40,-208.36 47.74,-209.24 46.42,-209.84 45.09,-210.43 43.19,-211.32 41.28,-212.21 39.96,-212.46 38.64,-212.71 34.89,-213.80 31.13,-214.88 28.92,-215.66 26.72,-216.44 24.15,-217.05 21.58,-217.65 20.04,-218.14 18.49,-218.63 17.09,-218.73 15.68,-218.83 13.92,-218.70 12.16,-218.56 9.83,-219.28 7.51,-219.99 7.22,-220.28 6.94,-220.57 6.77,-220.93 6.59,-221.30 6.55,-221.70 6.50,-222.10 6.58,-222.50 6.66,-222.89 6.87,-223.24 7.07,-223.59 7.38,-223.86 7.68,-224.12 8.06,-224.28 8.43,-224.43 8.83,-224.46 9.24,-224.48 9.63,-224.38 10.02,-224.27 10.36,-224.05 10.69,-223.83 10.94,-223.51 11.19,-223.19 11.32,-222.81 11.46,-222.43 11.46,-222.02 11.47,-221.62 11.34,-221.23 11.22,-220.85 10.97,-220.52 10.73,-220.20 10.40,-219.97 10.07,-219.74 9.68,-219.63 9.29,-219.51 8.89,-219.53 8.48,-219.55 8.11,-219.69 7.73,-219.84 7.42,-220.10 7.11,-220.36 6.90,-220.70 6.68,-221.04 6.59,-221.44 6.50,-221.83 6.54,-222.23 6.58,-222.64 6.75,-223.01 6.91,-223.37 7.19,-223.67 7.46,-223.97 7.82,-224.16 8.17,-224.35 8.57,-224.42 8.97,-224.49 9.37,-224.43 9.77,-224.37 10.13,-224.19 10.49,-224.00 10.49,-224.00 10.48,-224.00 12.17,-223.63 13.85,-223.27 15.06,-223.07 16.27,-222.87 17.98,-222.32 19.68,-221.76 20.96,-221.17 22.24,-220.58 24.97,-220.00 27.70,-219.42 29.85,-218.76 32.00,-218.10 35.77,-217.15 39.54,-216.19 41.06,-215.71 42.58,-215.23 44.65,-214.40 46.72,-213.56 47.99,-212.81 49.26,-212.06 50.98,-211.12 52.71,-210.17 53.98,-209.28 55.24,-208.38 56.86,-207.20 58.48,-206.02 61.77,-203.89 65.05,-201.76 68.61,-198.84 72.17,-195.92 74.36,-193.86 76.55,-191.79 80.38,-188.25 84.21,-184.71 86.40,-182.51 88.60,-180.31 91.05,-177.82 93.49,-175.32 95.15,-173.52 96.81,-171.72 99.34,-168.83 101.86,-165.93 102.89,-164.48 103.93,-163.03 105.79,-160.43 107.65,-157.83 108.49,-156.37 109.32,-154.91 110.70,-152.40 112.09,-149.90 113.39,-147.86 114.69,-145.81 115.58,-143.85 116.47,-141.89 117.05,-140.10 117.64,-138.31 118.45,-136.05 119.26,-133.80 119.57,-132.14 119.88,-130.49 120.76,-127.84 121.65,-125.19 122.24,-123.47 122.83,-121.75 123.64,-119.21 124.44,-116.67 124.69,-115.22 124.94,-113.76 125.05,-111.57 125.16,-109.37 125.09,-108.26 125.02,-107.16 125.08,-105.25 125.13,-103.33 125.06,-102.21 124.99,-101.08 125.05,-99.11 125.12,-97.14 125.06,-95.89 124.99,-94.63 124.87,-91.99 124.74,-89.34 124.72,-87.54 124.70,-85.75 124.62,-84.23 124.54,-82.71 124.58,-80.49 124.62,-78.26 124.59,-76.42 124.56,-74.57 124.60,-71.58 124.65,-68.59 124.70,-66.28 124.76,-63.98 124.66,-60.24 124.56,-56.50 124.31,-54.75 124.07,-52.99 123.57,-51.95 123.08,-50.91 122.17,-49.20 121.26,-47.49 120.03,-45.61 118.79,-43.72 117.14,-41.21 115.49,-38.70 113.84,-37.09 112.19,-35.49 108.94,-32.37 105.69,-29.24 101.58,-26.06 97.47,-22.89 92.41,-18.72 87.35,-14.56 83.67,-12.29 80.00,-10.02 73.41,-6.74 66.82,-3.46 61.59,-1.91 56.37,-0.37 49.65,0.50 42.94,1.38 36.13,1.39 29.32,1.40 22.78,1.42 16.24,1.44 10.99,1.46 5.75,1.49 2.87,1.52 0,1.56 -0.18,1.53 -0.37,1.51 -0.54,1.45 -0.72,1.38 -0.88,1.27 -1.03,1.16 -1.16,1.02 -1.28,0.88 -1.37,0.72 -1.46,0.55 -1.50,0.37 -1.55,0.18 -1.55,-0.00 -1.55,-0.18 -1.50,-0.37 -1.46,-0.55 -1.37,-0.72 -1.28,-0.88 -1.16,-1.02 -1.03,-1.16 -0.88,-1.27 -0.72,-1.38 -0.54,-1.45 -0.37,-1.51 -0.18,-1.53 0.00,-1.56 0.00,-1.56 L 0,-1.56 Z"></path></g><g transform="translate(1099 412) rotate(0 -33 28.5)" stroke="none"><path fill="#1e1e1e" d="M 0,1.67 Q 0,1.67 -4.31,1.62 -8.62,1.57 -13.62,1.53 -18.61,1.50 -27.06,1.47 -35.51,1.45 -40.53,1.43 -45.56,1.41 -51.15,1.40 -56.74,1.38 -59.39,1.37 -62.05,1.36 -61.77,3.49 -61.50,5.61 -59.57,9.50 -57.65,13.39 -55.09,18.56 -52.53,23.73 -49.74,28.77 -46.94,33.82 -44.90,37.41 -42.85,41.00 -40.84,44.24 -38.84,47.47 -37.67,49.77 -36.50,52.06 -35.07,54.11 -33.64,56.15 -33.54,56.39 -33.44,56.63 -33.42,56.88 -33.40,57.14 -33.47,57.39 -33.53,57.64 -33.67,57.86 -33.82,58.08 -34.02,58.24 -34.22,58.40 -34.47,58.48 -34.71,58.57 -34.97,58.57 -35.23,58.58 -35.47,58.50 -35.72,58.42 -35.93,58.27 -36.14,58.11 -36.29,57.90 -36.43,57.69 -36.51,57.44 -36.58,57.19 -36.57,56.94 -36.56,56.68 -36.47,56.44 -36.38,56.19 -36.21,55.99 -36.05,55.79 -35.83,55.66 -35.61,55.52 -35.36,55.46 -35.11,55.40 -34.85,55.42 -34.59,55.45 -34.36,55.55 -34.12,55.66 -33.93,55.83 -33.74,56.01 -33.61,56.23 -33.49,56.46 -33.44,56.71 -33.40,56.97 -33.43,57.22 -33.47,57.48 -33.59,57.71 -33.71,57.94 -33.89,58.12 -34.08,58.30 -34.31,58.42 -34.54,58.53 -34.80,58.56 -35.06,58.59 -35.31,58.54 -35.56,58.49 -35.79,58.36 -36.01,58.23 -36.18,58.04 -36.35,57.84 -36.35,57.84 -36.35,57.84 -37.62,55.57 -38.89,53.29 -40.02,51.10 -41.14,48.91 -43.19,45.64 -45.23,42.37 -47.31,38.78 -49.39,35.18 -52.24,30.09 -55.09,25.00 -57.68,19.85 -60.28,14.70 -62.38,10.53 -64.47,6.36 -65.18,3.65 -65.88,0.94 -63.98,-0.20 -62.07,-1.36 -59.40,-1.37 -56.74,-1.38 -51.15,-1.40 -45.56,-1.41 -40.53,-1.43 -35.51,-1.45 -27.06,-1.47 -18.61,-1.50 -13.62,-1.53 -8.62,-1.57 -4.31,-1.62 0,-1.67 0.20,-1.64 0.40,-1.62 0.58,-1.55 0.77,-1.48 0.94,-1.36 1.10,-1.25 1.24,-1.10 1.37,-0.95 1.47,-0.77 1.56,-0.59 1.61,-0.39 1.66,-0.20 1.66,0.00 1.66,0.20 1.61,0.39 1.56,0.59 1.47,0.77 1.37,0.95 1.24,1.10 1.10,1.25 0.94,1.36 0.77,1.48 0.58,1.55 0.40,1.62 0.20,1.64 -0.00,1.67 -0.00,1.67 L 0,1.67 Z"></path></g><g stroke-linecap="round" transform="translate(775 328.5) rotate(0 108.5 74.5)"><path d="M64.93 6.09 C76.5 1.47, 92.9 -0.02, 106.87 -0.28 C120.84 -0.55, 135.94 0.83, 148.75 4.5 C161.56 8.17, 173.88 15.12, 183.74 21.72 C193.6 28.32, 202.51 35.62, 207.93 44.1 C213.36 52.57, 216.07 62.88, 216.3 72.57 C216.53 82.26, 214.32 93.43, 209.33 102.25 C204.33 111.06, 195.99 118.86, 186.32 125.46 C176.66 132.06, 164.1 137.87, 151.34 141.85 C138.58 145.84, 123.39 149, 109.75 149.35 C96.11 149.7, 82.25 147.46, 69.51 143.95 C56.78 140.43, 43.29 134.77, 33.33 128.24 C23.37 121.71, 15.39 113.47, 9.75 104.76 C4.11 96.05, -0.04 85.58, -0.53 75.98 C-1.01 66.37, 1.63 56.13, 6.84 47.15 C12.05 38.18, 19.66 29.36, 30.75 22.12 C41.83 14.89, 64.85 6.99, 73.36 3.75 C81.86 0.52, 81.21 1.41, 81.78 2.71 M71.16 4.71 C83.12 0.61, 99.96 0.75, 113.67 1.14 C127.38 1.54, 141.12 3.24, 153.43 7.08 C165.75 10.92, 178.14 17.36, 187.56 24.18 C196.97 31, 205.25 39.11, 209.94 48.01 C214.63 56.92, 216.22 68, 215.7 77.62 C215.17 87.23, 212.11 97.23, 206.79 105.71 C201.48 114.18, 193.64 121.94, 183.79 128.48 C173.95 135.01, 161.17 141.58, 147.73 144.9 C134.3 148.23, 117.39 149.08, 103.19 148.42 C88.99 147.76, 75.13 145, 62.52 140.93 C49.9 136.87, 37.01 130.77, 27.51 124.04 C18.02 117.3, 10.07 109.34, 5.55 100.52 C1.04 91.71, -0.46 80.45, 0.43 71.13 C1.33 61.8, 5.29 53.25, 10.93 44.57 C16.57 35.89, 24.19 25.78, 34.28 19.07 C44.38 12.35, 65.13 6.47, 71.52 4.29 C77.9 2.1, 72.12 4.84, 72.59 5.96" stroke="#1e1e1e" stroke-width="2" fill="none"></path></g><g transform="translate(815 372.0195582804529) rotate(0 71.5666675567627 34.99022085977356)"><text x="0" y="49.04229355705862" font-family="Virgil, Segoe UI Emoji" font-size="55.98435337563769px" fill="#1e1e1e" text-anchor="start" style="white-space: pre;" direction="ltr" dominant-baseline="alphabetic">NULL</text></g><g transform="translate(362 10) rotate(0 190.64166641235352 44.84279457221629)"><text x="0" y="62.85166087241841" font-family="Virgil, Segoe UI Emoji" font-size="71.74847131554613px" fill="#1e1e1e" text-anchor="start" style="white-space: pre;" direction="ltr" dominant-baseline="alphabetic">Linked List</text></g><g transform="translate(536 586.1779875176319) rotate(0 32.11666679382324 56.411006241184054)"><text x="0" y="79.06566634764351" font-family="Virgil, Segoe UI Emoji" font-size="90.25760998589443px" fill="#1e1e1e" text-anchor="start" style="white-space: pre;" direction="ltr" dominant-baseline="alphabetic">2</text></g><g transform="translate(194 580.4615354820115) rotate(0 13.708333253860474 63.269232258994236)"><text x="0" y="88.67815593420625" font-family="Virgil, Segoe UI Emoji" font-size="101.23077161439069px" fill="#1e1e1e" text-anchor="start" style="white-space: pre;" direction="ltr" dominant-baseline="alphabetic">1</text></g><g transform="translate(887 603.068544086017) rotate(0 25.30833339691162 46.465727956991486)"><text x="0" y="65.12636430451926" font-family="Virgil, Segoe UI Emoji" font-size="74.34516473118636px" fill="#1e1e1e" text-anchor="start" style="white-space: pre;" direction="ltr" dominant-baseline="alphabetic">3</text></g><g transform="translate(373 195.84397020724407) rotate(0 191.64166641235352 45.078014896377965)"><text x="0" y="63.181345678763385" font-family="Virgil, Segoe UI Emoji" font-size="72.12482383420478px" fill="#1e1e1e" text-anchor="start" style="white-space: pre;" direction="ltr" dominant-baseline="alphabetic">Linked List</text></g></svg>